<svg width="24" height="25" viewBox="0 0 24 25" fill="none" xmlns="http://www.w3.org/2000/svg">
<path d="M11 6.5C12.1046 6.5 13 5.60457 13 4.5C13 3.39543 12.1046 2.5 11 2.5C9.89543 2.5 9 3.39543 9 4.5C9 5.60457 9.89543 6.5 11 6.5Z" stroke="#16A34A" stroke-width="2" stroke-linecap="round" stroke-linejoin="round"/>
<path d="M18 10.5C19.1046 10.5 20 9.60457 20 8.5C20 7.39543 19.1046 6.5 18 6.5C16.8954 6.5 16 7.39543 16 8.5C16 9.60457 16.8954 10.5 18 10.5Z" stroke="#16A34A" stroke-width="2" stroke-linecap="round" stroke-linejoin="round"/>
<path d="M20 18.5C21.1046 18.5 22 17.6046 22 16.5C22 15.3954 21.1046 14.5 20 14.5C18.8954 14.5 18 15.3954 18 16.5C18 17.6046 18.8954 18.5 20 18.5Z" stroke="#16A34A" stroke-width="2" stroke-linecap="round" stroke-linejoin="round"/>
<path d="M8.99999 10.5C9.6566 10.5 10.3068 10.6293 10.9134 10.8806C11.52 11.1319 12.0712 11.5002 12.5355 11.9645C12.9998 12.4288 13.3681 12.98 13.6194 13.5866C13.8707 14.1932 14 14.8434 14 15.5V19C13.9997 19.8365 13.6999 20.6452 13.1548 21.2796C12.6097 21.9141 11.8554 22.3324 11.0286 22.4587C10.2017 22.585 9.35695 22.4111 8.64729 21.9683C7.93763 21.5255 7.41001 20.8432 7.15999 20.045C6.73333 18.6683 5.83333 17.7667 4.45999 17.34C3.66218 17.0901 2.98016 16.5629 2.53735 15.8538C2.09455 15.1446 1.92021 14.3004 2.04588 13.4739C2.17155 12.6473 2.58893 11.8931 3.2225 11.3476C3.85607 10.8021 4.66396 10.5015 5.49999 10.5H8.99999Z" stroke="#16A34A" stroke-width="2" stroke-linecap="round" stroke-linejoin="round"/>
</svg>
